<svg width="771" height="262" viewBox="0 0 771 262" fill="none" xmlns="http://www.w3.org/2000/svg">
<g filter="url(#filter0_dd_175_21)">
<g filter="url(#filter1_d_175_21)">
<path d="M198.398 60.6015C207.595 60.6015 213.082 66.2858 213.082 74.4176C213.082 82.5493 207.595 88.2336 198.398 88.2336H189.792V60.6015H198.398ZM198.398 83.2599C203.411 83.2599 207.714 80.5756 207.714 74.4176C207.714 68.2596 203.411 65.5753 198.398 65.5753H195.161V83.2599H198.398ZM217.239 60.6015H222.568V88.2336H217.239V60.6015ZM238.235 72.3649C244.788 73.8649 247.156 75.7597 247.156 80.2203C247.156 84.523 244.077 88.7468 236.853 88.7468C231.682 88.7468 227.064 86.6152 225.722 82.0362L230.893 80.4177C231.288 81.9967 232.945 84.0494 236.814 84.0494C239.577 84.0494 241.788 82.9835 241.788 80.6151C241.788 77.8519 238.669 77.6545 234.288 76.5887C228.722 75.2071 226.866 72.4044 226.866 68.5754C226.866 63.3647 230.853 60.1278 236.617 60.1278C241.235 60.1278 244.867 62.4173 246.051 66.6411L240.84 67.9043C240.525 66.4437 239.103 64.8253 236.34 64.8253C234.051 64.8253 232.156 66.0095 232.156 68.2201C232.156 71.3386 235.669 71.7728 238.235 72.3649ZM263.766 83.6546C266.648 83.6546 268.858 82.4704 270.319 80.694L274.74 83.6151C272.253 86.7731 268.385 88.7468 263.766 88.7468C255.595 88.7468 249.713 82.5098 249.713 74.4176C249.713 66.3253 255.595 60.1278 263.766 60.1278C268.385 60.1278 272.253 62.0621 274.74 65.2595L270.319 68.1806C268.858 66.4043 266.648 65.22 263.766 65.22C258.042 65.22 255.082 69.8385 255.082 74.4176C255.082 79.0361 258.042 83.6546 263.766 83.6546ZM290.404 60.1278C298.575 60.1278 304.457 66.3253 304.457 74.4176C304.457 82.5098 298.575 88.7468 290.404 88.7468C282.232 88.7468 276.351 82.5098 276.351 74.4176C276.351 66.3253 282.232 60.1278 290.404 60.1278ZM290.404 83.6546C296.127 83.6546 299.088 79.0361 299.088 74.4176C299.088 69.8385 296.127 65.22 290.404 65.22C284.68 65.22 281.719 69.8385 281.719 74.4176C281.719 79.0361 284.68 83.6546 290.404 83.6546ZM326.196 60.6015H331.88L321.933 88.2336H315.34L305.432 60.6015H311.077L318.656 82.8256L326.196 60.6015ZM340.375 83.2599H351.349V88.2336H335.046V60.6015H350.993V65.5753H340.375V71.8123H350.086V76.7861H340.375V83.2599ZM377.498 88.2336H371.38L365.695 78.2861C365.577 78.2861 365.419 78.2861 365.261 78.2861H361.037V88.2336H355.708V60.6015H365.261C371.459 60.6015 375.564 64.3911 375.564 69.6412C375.564 73.1149 373.709 75.7992 370.709 77.1808L377.498 88.2336ZM361.037 65.5753V73.6676H365.261C368.024 73.6676 370.077 72.4044 370.077 69.6412C370.077 67.1543 368.261 65.5753 365.261 65.5753H361.037Z" fill="white"/>
</g>
<rect width="138.161" height="50.5766" transform="translate(426.54 48)" fill="#A52323" fill-opacity="0.92"/>
<path d="M442.905 58.5796H449.704L454.204 70.9434H454.512L463.077 58.5796H469.876L456.334 77.1394L454.638 87.2883H448.61L450.307 77.1394L442.905 58.5796ZM495.399 73.3265C494.875 76.3917 493.861 78.9944 492.357 81.1345C490.862 83.2745 489.035 84.9006 486.876 86.0127C484.726 87.1248 482.409 87.6808 479.923 87.6808C477.316 87.6808 475.068 87.0874 473.18 85.9006C471.302 84.7137 469.942 82.9988 469.101 80.756C468.26 78.5038 468.101 75.789 468.625 72.6116C469.129 69.537 470.134 66.9296 471.638 64.7896C473.143 62.6402 474.979 61.0047 477.147 59.8833C479.316 58.7525 481.647 58.1871 484.142 58.1871C486.731 58.1871 488.965 58.7852 490.843 59.9814C492.731 61.1776 494.09 62.9065 494.922 65.1681C495.763 67.4203 495.922 70.1397 495.399 73.3265ZM489.357 72.6116C489.684 70.6397 489.67 68.9856 489.315 67.6492C488.969 66.3035 488.334 65.2849 487.409 64.5933C486.483 63.9018 485.315 63.556 483.904 63.556C482.371 63.556 480.965 63.9392 479.685 64.7055C478.414 65.4718 477.339 66.5839 476.461 68.0417C475.591 69.4902 474.989 71.2518 474.652 73.3265C474.316 75.3077 474.325 76.9618 474.68 78.2888C475.045 79.6159 475.694 80.6205 476.629 81.3027C477.573 81.9755 478.746 82.312 480.147 82.312C481.671 82.312 483.063 81.9382 484.325 81.1905C485.596 80.4336 486.666 79.3355 487.535 77.8963C488.404 76.4478 489.011 74.6862 489.357 72.6116ZM520.067 58.5796H526.137L523.053 77.2235C522.707 79.3168 521.908 81.1485 520.656 82.7185C519.403 84.2885 517.81 85.5127 515.875 86.3912C513.941 87.2603 511.782 87.6948 509.399 87.6948C507.016 87.6948 505.007 87.2603 503.371 86.3912C501.736 85.5127 500.554 84.2885 499.825 82.7185C499.096 81.1485 498.904 79.3168 499.25 77.2235L502.334 58.5796H508.404L505.39 76.7048C505.222 77.7982 505.306 78.7701 505.642 79.6205C505.988 80.4709 506.558 81.1391 507.353 81.6251C508.147 82.111 509.128 82.354 510.296 82.354C511.474 82.354 512.539 82.111 513.492 81.6251C514.455 81.1391 515.245 80.4709 515.861 79.6205C516.488 78.7701 516.885 77.7982 517.053 76.7048L520.067 58.5796ZM526.364 87.2883L531.13 58.5796H542.457C544.625 58.5796 546.41 58.9628 547.812 59.7291C549.223 60.4954 550.214 61.5841 550.784 62.9953C551.363 64.3971 551.498 66.0512 551.19 67.9576C550.872 69.8641 550.185 71.4995 549.129 72.8639C548.083 74.2283 546.718 75.2796 545.036 76.0179C543.363 76.7469 541.424 77.1113 539.219 77.1113H531.635L532.476 72.2331H539.065C540.223 72.2331 541.214 72.0742 542.036 71.7565C542.859 71.4387 543.508 70.9621 543.985 70.3267C544.471 69.6912 544.789 68.9015 544.938 67.9576C545.097 66.9951 545.041 66.1914 544.77 65.5465C544.499 64.8924 544.008 64.3971 543.298 64.0606C542.588 63.7149 541.653 63.542 540.494 63.542H536.401L532.434 87.2883H526.364ZM544.027 74.2236L549.003 87.2883H542.303L537.481 74.2236H544.027Z" fill="white"/>
<path d="M84.7901 139.869C101.369 139.869 113.212 152.185 113.212 168.448C113.212 184.791 101.369 197.107 84.7901 197.107C68.2108 197.107 56.3685 184.791 56.3685 168.448C56.3685 152.185 68.2108 139.869 84.7901 139.869ZM84.7901 181.238C92.3692 181.238 96.8693 175.712 96.8693 168.448C96.8693 161.264 92.3692 155.658 84.7901 155.658C77.211 155.658 72.7109 161.264 72.7109 168.448C72.7109 175.712 77.211 181.238 84.7901 181.238ZM156.813 196.08L147.813 178.317H141.813V196.08H125.47V140.816H148.129C163.366 140.816 170.787 148.474 170.787 160.632C170.787 167.659 167.945 172.475 162.892 175.238L174.656 196.08H156.813ZM141.813 155.658V165.527H148.129C151.839 165.527 154.287 164.264 154.287 160.632C154.287 157.316 152.392 155.658 148.129 155.658H141.813ZM208.373 164.106H236.242V196.08H229.058L227.242 189.291C223.295 194.186 217.532 197.107 209.795 197.107C193.215 197.107 181.373 184.791 181.373 168.448C181.373 152.185 193.215 139.869 209.795 139.869C219.742 139.869 227.953 144.29 233.006 151.395L219.426 160.316C217.374 157.474 214.058 155.658 209.795 155.658C202.215 155.658 197.636 161.264 197.636 168.448C197.636 175.712 202.215 181.948 209.795 181.948C215.242 181.948 218.953 179.817 220.69 175.554H208.373V164.106ZM285.154 196.08L282.706 187.238H265.811L263.364 196.08H245.679L264.153 140.816H284.364L302.838 196.08H285.154ZM269.048 175.554H279.469L274.259 156.685L269.048 175.554ZM346.606 140.816H362.869V196.08H348.264L329.474 166.632V196.08H313.131V140.816H327.737L346.606 170.264V140.816ZM377.098 140.816H393.441V196.08H377.098V140.816ZM447.551 140.816V155.658H434.603V196.08H418.261V155.658H405.313V140.816H447.551ZM490.985 196.08L488.538 187.238H471.643L469.195 196.08H451.511L469.985 140.816H490.196L508.67 196.08H490.985ZM474.88 175.554H485.301L480.09 156.685L474.88 175.554ZM554.9 140.816V155.658H541.952V196.08H525.61V155.658H512.662V140.816H554.9ZM566.739 140.816H583.082V196.08H566.739V140.816ZM623.771 139.869C640.35 139.869 652.192 152.185 652.192 168.448C652.192 184.791 640.35 197.107 623.771 197.107C607.191 197.107 595.349 184.791 595.349 168.448C595.349 152.185 607.191 139.869 623.771 139.869ZM623.771 181.238C631.35 181.238 635.85 175.712 635.85 168.448C635.85 161.264 631.35 155.658 623.771 155.658C616.191 155.658 611.691 161.264 611.691 168.448C611.691 175.712 616.191 181.238 623.771 181.238ZM697.925 140.816H714.189V196.08H699.583L680.793 166.632V196.08H664.451V140.816H679.056L697.925 170.264V140.816Z" fill="white"/>
</g>
<defs>
<filter id="filter0_dd_175_21" x="0.368408" y="0" width="769.82" height="261.107" filterUnits="userSpaceOnUse" color-interpolation-filters="sRGB">
<feFlood flood-opacity="0" result="BackgroundImageFix"/>
<feColorMatrix in="SourceAlpha" type="matrix" values="0 0 0 0 0 0 0 0 0 0 0 0 0 0 0 0 0 0 127 0" result="hardAlpha"/>
<feOffset dy="4"/>
<feGaussianBlur stdDeviation="25"/>
<feColorMatrix type="matrix" values="0 0 0 0 0 0 0 0 0 0 0 0 0 0 0 0 0 0 1 0"/>
<feBlend mode="normal" in2="BackgroundImageFix" result="effect1_dropShadow_175_21"/>
<feColorMatrix in="SourceAlpha" type="matrix" values="0 0 0 0 0 0 0 0 0 0 0 0 0 0 0 0 0 0 127 0" result="hardAlpha"/>
<feMorphology radius="6" operator="dilate" in="SourceAlpha" result="effect2_dropShadow_175_21"/>
<feOffset dy="8"/>
<feGaussianBlur stdDeviation="25"/>
<feColorMatrix type="matrix" values="0 0 0 0 0 0 0 0 0 0 0 0 0 0 0 0 0 0 1 0"/>
<feBlend mode="normal" in2="effect1_dropShadow_175_21" result="effect2_dropShadow_175_21"/>
<feBlend mode="normal" in="SourceGraphic" in2="effect2_dropShadow_175_21" result="shape"/>
</filter>
<filter id="filter1_d_175_21" x="169.792" y="44.1279" width="227.706" height="68.6189" filterUnits="userSpaceOnUse" color-interpolation-filters="sRGB">
<feFlood flood-opacity="0" result="BackgroundImageFix"/>
<feColorMatrix in="SourceAlpha" type="matrix" values="0 0 0 0 0 0 0 0 0 0 0 0 0 0 0 0 0 0 127 0" result="hardAlpha"/>
<feOffset dy="4"/>
<feGaussianBlur stdDeviation="10"/>
<feComposite in2="hardAlpha" operator="out"/>
<feColorMatrix type="matrix" values="0 0 0 0 0 0 0 0 0 0 0 0 0 0 0 0 0 0 0.76 0"/>
<feBlend mode="normal" in2="BackgroundImageFix" result="effect1_dropShadow_175_21"/>
<feBlend mode="normal" in="SourceGraphic" in2="effect1_dropShadow_175_21" result="shape"/>
</filter>
</defs>
</svg>
